<?xml version="1.0" encoding="utf-8"?>
<!-- Generator: Adobe Illustrator 24.3.0, SVG Export Plug-In . SVG Version: 6.00 Build 0)  -->
<svg version="1.1" id="Layer_1" xmlns="http://www.w3.org/2000/svg" xmlns:xlink="http://www.w3.org/1999/xlink" x="0px" y="0px"
	 viewBox="0 0 27.4 27.4" style="enable-background:new 0 0 27.4 27.4;" xml:space="preserve">
<style type="text/css">
	.st0{fill:#FFFFFF;}
</style>
<g>
	<circle class="st0" cx="13.7" cy="13.7" r="13.7"/>
	<path d="M22.5,8.8h-0.3c-0.4,0-0.7,0.2-0.9,0.5l-3.1,4.1L15,9.3c-0.2-0.3-0.6-0.5-0.9-0.5h-0.3l3.9,5.2l-4,5.3H14
		c0.4,0,0.7-0.2,0.9-0.5l3.2-4.2l3.2,4.2c0.2,0.3,0.6,0.5,0.9,0.5h0.3l-3.9-5.3L22.5,8.8z M12.4,17.1c-0.9,1.4-2.7,2.1-4.4,1.5
		c-1.5-0.5-2.5-2.1-2.5-3.7v-0.4h4.3l0,0h3.9V13c0-2.3-1.7-4.4-4.1-4.6C7,8.2,4.8,10.3,4.8,12.9v2c0,1.9,1.2,3.7,3,4.4
		c2.4,0.9,4.8-0.4,5.7-2.6l0,0h-0.3C12.8,16.7,12.6,16.8,12.4,17.1z M5.5,12.9c0-2.1,1.7-3.8,3.8-3.8s3.8,1.7,3.8,3.8v0.9H5.5V12.9z
		"/>
</g>
</svg>
