<?xml version="1.0" encoding="utf-8"?>
<!-- Generator: Adobe Illustrator 24.3.0, SVG Export Plug-In . SVG Version: 6.00 Build 0)  -->
<svg version="1.1" id="Layer_1" xmlns="http://www.w3.org/2000/svg" xmlns:xlink="http://www.w3.org/1999/xlink" x="0px" y="0px"
	 viewBox="0 0 64 64" style="enable-background:new 0 0 64 64;" xml:space="preserve">
<style type="text/css">
	.st0{fill:#001E2B;}
	.st1{fill:#00ED64;}
</style>
<circle class="st0" cx="32.3" cy="32" r="31.8"/>
<g>
	<path class="st1" d="M36.3,12.6c-2.1-2.5-3.9-5-4.3-5.5c0,0-0.1,0-0.1,0c-0.4,0.5-2.2,3.1-4.3,5.5c-18,23,2.8,38.5,2.8,38.5
		l0.2,0.1c0.2,2.4,0.5,5.8,0.5,5.8H32h0.8c0,0,0.4-3.4,0.5-5.8l0.2-0.1C33.5,51,54.4,35.5,36.3,12.6z M32,50.7c0,0-0.9-0.8-1.2-1.2
		v0l1.1-25c0-0.1,0.1-0.1,0.1,0l1.1,25v0C32.9,49.9,32,50.7,32,50.7z"/>
</g>
</svg>
