<?xml version="1.0" encoding="utf-8"?>
<!-- Generator: Adobe Illustrator 24.3.0, SVG Export Plug-In . SVG Version: 6.00 Build 0)  -->
<svg version="1.1" id="Layer_1" xmlns="http://www.w3.org/2000/svg" xmlns:xlink="http://www.w3.org/1999/xlink" x="0px" y="0px"
	 viewBox="0 0 44 48.4" style="enable-background:new 0 0 44 48.4;" xml:space="preserve">
<style type="text/css">
	.st0{fill:#83CD29;}
</style>
<g>
	<path class="st0" d="M21.9,0c-0.7,0-1.2,0.2-1.9,0.5L2.2,10.8c-1.2,0.7-1.9,1.9-1.9,3.1v20.4c0,1.4,0.7,2.6,1.9,3.1L6.8,40
		c2.2,1.2,3.1,1.2,4.1,1.2c3.4,0,5.3-1.9,5.3-5.5V15.8c0-0.2-0.2-0.5-0.5-0.5h-2.2c-0.2,0-0.5,0.2-0.5,0.5v20.1
		c0,1.4-1.7,3.1-4.3,1.9L3.9,35c-0.2,0-0.2-0.2-0.2-0.5V14.1c0-0.2,0.2-0.5,0.2-0.5L21.6,3.6c0.2,0,0.5,0,0.5,0l17.7,10.1
		c0.2,0,0.2,0.2,0.2,0.5v20.4c0,0.2,0,0.5-0.2,0.5L22.1,45c-0.2,0-0.5,0-0.5,0l-4.6-2.6c-0.2,0-0.2,0-0.5,0
		c-1.2,0.7-1.4,0.7-2.6,1.2c-0.2,0-0.7,0.2,0.2,0.7l6,3.6c0.5,0.2,1.2,0.5,1.9,0.5c0.7,0,1.2-0.2,1.9-0.5l17.7-10.1
		c1.2-0.7,1.9-1.9,1.9-3.1V14.4c0-1.4-0.7-2.6-1.9-3.1L24,1C23.1,0.2,22.4,0,21.9,0L21.9,0z M26.7,14.6c-5,0-8.1,2.2-8.1,5.8
		c0,3.8,2.9,5,7.9,5.5c5.8,0.5,6.2,1.4,6.2,2.6c0,1.9-1.7,2.9-5.3,2.9c-4.8,0-5.8-1.2-6-3.6c0-0.2-0.2-0.5-0.5-0.5h-2.4
		c-0.2,0-0.5,0.2-0.5,0.5c0,2.9,1.7,6.5,9.3,6.5c5.5,0,8.9-2.2,8.9-6s-2.6-4.8-8.1-5.5c-5.5-0.7-6-1.2-6-2.4c0-1,0.5-2.4,4.6-2.4
		c3.6,0,5,0.7,5.5,3.1c0,0.2,0.2,0.5,0.5,0.5h2.4c0.2,0,0.2,0,0.5-0.2c0,0,0.2-0.2,0.2-0.5C35.1,16.5,32.2,14.6,26.7,14.6L26.7,14.6
		z"/>
</g>
</svg>
